/* XPM */
static const char *Y29sbGVjdC1mb3Rvci1iZy1yZW1vdmVyLTIwMjQwNjMwMTU0NjYrJTI4MSUyOSslMjgxJTI5[] = {
/* columns rows colors chars-per-pixel */
"30 30 145 2 ",
"   c #1D250B",
".  c #2C3502",
"X  c #2A330B",
"o  c #313B06",
"O  c #383F02",
"+  c #373F0D",
"@  c #2D3615",
"#  c #3B4305",
"$  c #354109",
"%  c #3A430B",
"&  c #3B4515",
"*  c #3F5810",
"=  c #444B06",
"-  c #424C0D",
";  c #494F08",
":  c #485106",
">  c #47530A",
",  c #4A5009",
"<  c #425E0F",
"1  c #505504",
"2  c #535B03",
"3  c #585E05",
"4  c #434E16",
"5  c #435D11",
"6  c #495D11",
"7  c #4C581C",
"8  c #525B14",
"9  c #596303",
"0  c #5A6008",
"q  c #466111",
"w  c #4A6512",
"e  c #4D6A13",
"r  c #586413",
"t  c #516D14",
"y  c #526A18",
"u  c #4F7114",
"i  c #547415",
"p  c #587716",
"a  c #567916",
"s  c #5A7C16",
"d  c #537218",
"f  c #567918",
"g  c #5C7D18",
"h  c #666D06",
"j  c #656B0A",
"k  c #697204",
"l  c #7A7F05",
"z  c #727A0B",
"x  c #627411",
"c  c #627812",
"v  c #60731E",
"b  c #6C741B",
"n  c #617E1F",
"m  c #464F26",
"M  c #4C5626",
"N  c #556624",
"B  c #636A26",
"V  c #627922",
"C  c #707120",
"Z  c #636A36",
"A  c #777A31",
"S  c #747A3A",
"D  c #5E8118",
"F  c #608417",
"G  c #6E8313",
"H  c #628519",
"J  c #668A18",
"K  c #6E881D",
"L  c #768714",
"P  c #7E8517",
"I  c #70801B",
"U  c #6B8426",
"Y  c #688820",
"T  c #758320",
"R  c #798120",
"E  c #718B23",
"W  c #6C8930",
"Q  c #778030",
"!  c #748B34",
"~  c #768F46",
"^  c #868F07",
"/  c #8B8E05",
"(  c #83850A",
")  c #868A09",
"_  c #889607",
"`  c #919E03",
"'  c #9D9C09",
"]  c #848F12",
"[  c #84901B",
"{  c #93981C",
"}  c #A1A503",
"|  c #A4AE03",
" . c #A3A40A",
".. c #A8AD0A",
"X. c #A6B603",
"o. c #ADB104",
"O. c #B4B40C",
"+. c #B9B90B",
"@. c #B7BA14",
"#. c #B4B118",
"$. c #828927",
"%. c #88893C",
"&. c #938F3C",
"*. c #95983F",
"=. c #BDAF32",
"-. c #D3BC28",
";. c #CAB339",
":. c #BAC204",
">. c #CFC90A",
",. c #D2C70A",
"<. c #C4C811",
"1. c #CDC910",
"2. c #D2C415",
"3. c #DDC816",
"4. c #E0D01A",
"5. c #D7CE24",
"6. c #D3C039",
"7. c #E0CC2D",
"8. c #8D9A4A",
"9. c #95964E",
"0. c #ADA346",
"q. c #B4AA4E",
"w. c #B7AD53",
"e. c #9A996C",
"r. c #8BA062",
"t. c #95A56E",
"y. c #B0AC60",
"u. c #B2B372",
"i. c #C4B54B",
"p. c #C7BE7C",
"a. c #B8BA85",
"s. c #B0B58A",
"d. c #C3BD84",
"f. c #C7C187",
"g. c #CBC590",
"h. c #D3CA94",
"j. c #C2C0A8",
"k. c #E5DBAE",
"l. c #DFDCC4",
"z. c #DADDD0",
"x. c #F1E7C4",
"c. c #E6E7DC",
"v. c #F6EED5",
"b. c #F2F3E6",
"n. c #FCFCF5",
/* pixels */
"i f g H s i i s s i D D f i s g s i p s s s f s s s s i i i ",
"i s s f f s s s g f s s s D g i i f s s f s D f i s g p s s ",
"D D f i D D f s D s i s f s i i s F s f s s f s s s g f i g ",
"s i f s F H s f s i f f s D s f g F D f s s f s s s i i s s ",
"f i s D F D H D D s D D s D ~ W J H D D s f p f s D s s D s ",
"D s F J F s s s s s s D D r.z.s.n D g g s s s s s D f s J D ",
"i f s s F F F s f f s s t.c.n.j.S g F H s f s D D s f s s s ",
"s s i i g F J g i i s ! l.n.b.e.%.Q s D s i a s s D H D i i ",
"F s i f s s g f f s Y u.x.v.a.B S %.H i i f s D s f D s f f ",
"s f s F D i i f s s 8.h.k.d.b 8 m Z V i i s D p s f a s D D ",
"D H H H D i i s D U y.f.g.A > - @ M N i s H D f f D s f f f ",
"D D D D s i f H H *.q.p.9.- % +   & 7 d s H F f f g s i i f ",
"i s s i i f D F E q.i.w.8 % # = X X 4 t s D D F f i f u i i ",
"i s f i f s s D K 0.&.C ; , 1 j - $ % 6 g J F s g D g f s s ",
"f s g s i g D H J b o - j 3 h j o # , r f D D s f s i i i i ",
"f F D f f F J H g r = : z l ( ; . # 0 x f i i s s g p i i i ",
"i s i e i i s s g L h k ^  .( # O 2 ) L g i e i s s g p e e ",
"i i i i i e e i s ] ' } o.O.z 9 k /  .G g i t e i i i i e e ",
"i s g s i e e i i [ 2.,.>..._ ` | +.] i i i i i s s i w w e ",
"i s g i t e e i i i { 3.4.@.X.:.1.#.c e i i i i i i i w w w ",
"e t i t i i p s i e w P -.7.<.5.=.I e e t e w w i i e w w e ",
"e e i i i i i i i e w w R ;.6.0.v w i i e t t e e e w q w e ",
"w q q w e t t e w w e e i T $.y w e i i t w w e e e e e e w ",
"e e w q e t w 5 q w w e i i i t w w w w e w q w w e i i i e ",
"w w e q q q q q q w e w e t e i i e w w e q q e w w w e t w ",
"5 q w w t t t t w q e e t i e e t t t e t e e t e w w e e w ",
"q 5 5 q w t e w q q e i i t e w w e t t e w q w w t t e w w ",
"5 5 5 q w e q 5 5 w e i t t e w w w w q 5 q w q w e e e w w ",
"w e w q 5 q 5 5 5 5 < q q w e e w w w q 5 5 w w w w q 5 q w ",
"e e w q q q q w w w 5 5 5 w w w e t t w w 5 * 5 < w e 5 5 5 "
};
