/* XPM */
static char *door1719343762[] = {
/* columns rows colors chars-per-pixel */
"32 32 228 2 ",
"   c #30090E",
".  c #371A19",
"X  c #29080F",
"o  c #3F221C",
"O  c #331D24",
"+  c #3A2628",
"@  c #312A35",
"#  c #44191A",
"$  c #49271B",
"%  c #552B1B",
"&  c #56271B",
"*  c #59220E",
"=  c #672C1C",
"-  c #432323",
";  c #4B2C23",
":  c #45262A",
">  c #482927",
",  c #542D26",
"<  c #582F2A",
"1  c #4E352B",
"2  c #483028",
"3  c #52352A",
"4  c #59362B",
"5  c #4C3A3B",
"6  c #493435",
"7  c #553435",
"8  c #5A3A35",
"9  c #6A3726",
"0  c #653728",
"q  c #693929",
"w  c #753C29",
"e  c #643939",
"r  c #613832",
"t  c #74432D",
"y  c #6B433B",
"u  c #684338",
"i  c #7B4935",
"p  c #774536",
"a  c #433944",
"s  c #5F4F50",
"d  c #664C47",
"f  c #784741",
"g  c #795848",
"h  c #775854",
"j  c #6F5852",
"k  c #7B645B",
"l  c #7A6367",
"z  c #884C35",
"x  c #8E513B",
"c  c #9A5639",
"v  c #8B492E",
"b  c #815146",
"n  c #87584C",
"m  c #9C5B43",
"M  c #975844",
"N  c #845752",
"B  c #9D6248",
"V  c #8B6254",
"C  c #88695A",
"Z  c #916453",
"A  c #916C5A",
"S  c #9B6755",
"D  c #8C715E",
"F  c #96715E",
"G  c #A8684C",
"H  c #B06B4E",
"J  c #AB6C54",
"K  c #A66D5E",
"L  c #A76D57",
"P  c #B06D52",
"I  c #A7745A",
"U  c #BD7A5D",
"Y  c #B77459",
"T  c #9C6C63",
"R  c #906C60",
"E  c #8E7365",
"W  c #9C7667",
"Q  c #897676",
"!  c #8F7678",
"~  c #A16F66",
"^  c #AE7C65",
"/  c #A77667",
"(  c #B27664",
")  c #B37B6B",
"_  c #B87B66",
"`  c #C37D63",
"'  c #AE8257",
"]  c #97877A",
"[  c #AB8365",
"{  c #BB806B",
"}  c #A88576",
"|  c #B88676",
" . c #BB9167",
".. c #C1815B",
"X. c #C98768",
"o. c #CC946F",
"O. c #C38A74",
"+. c #C78772",
"@. c #D08E74",
"#. c #CA9378",
"$. c #D8987B",
"%. c #D1926B",
"&. c #D6A47B",
"*. c #898A89",
"=. c #9A8E8B",
"-. c #978385",
";. c #9F9188",
":. c #8D8C97",
">. c #948E96",
",. c #9D9594",
"<. c #93919B",
"1. c #9A979A",
"2. c #AE8980",
"3. c #A7948A",
"4. c #A49395",
"5. c #A1959C",
"6. c #A99A98",
"7. c #B39D9F",
"8. c #ABA29B",
"9. c #8E91A0",
"0. c #9C9BA4",
"q. c #A69DA5",
"w. c #9DA7AE",
"e. c #ACA5A9",
"r. c #B6AAA3",
"t. c #B8A8A7",
"y. c #BBB4AB",
"u. c #BCAFB2",
"i. c #B3ABB1",
"p. c #ADB6BB",
"a. c #BAB2B3",
"s. c #BDBDB3",
"d. c #BAB3BB",
"f. c #BAB8BA",
"g. c #AAAEBA",
"h. c #C79681",
"j. c #D49E86",
"k. c #D1A283",
"l. c #D7AC8A",
"z. c #DFB288",
"x. c #CCA98B",
"c. c #C0A4A0",
"v. c #C2B5B6",
"b. c #C1B7B8",
"n. c #C6BAB8",
"m. c #D3BBB8",
"M. c #D6B0A5",
"N. c #C4C3BC",
"B. c #ACBCC7",
"V. c #B4BDC5",
"C. c #B9BDC7",
"Z. c #C1BEC5",
"A. c #ACC2CA",
"S. c #BCC5C9",
"D. c #BAC5C8",
"F. c #BBC8D2",
"G. c #C5C4C5",
"H. c #CDC4C5",
"J. c #C2C3CB",
"K. c #C3CBCB",
"L. c #CBCACC",
"P. c #CBC8C8",
"I. c #D2C2C2",
"U. c #D3CBCC",
"Y. c #D7C7C9",
"T. c #C4CCD4",
"R. c #CBCED3",
"E. c #C9C5D4",
"W. c #D2CCD3",
"Q. c #D6CAD2",
"!. c #C3D1D3",
"~. c #CAD4D4",
"^. c #C6D3DB",
"/. c #CAD3DB",
"(. c #CBD9DC",
"). c #D4D5D5",
"_. c #D4D4D8",
"`. c #D4DBDB",
"'. c #DDDCDC",
"]. c #DBD7D6",
"[. c #DBD0CA",
"{. c #E5CBC7",
"}. c #E9D0CD",
"|. c #E4DBDB",
" X c #F2D1CA",
".X c #F0E2DD",
"XX c #CED7E0",
"oX c #CDDAE3",
"OX c #D3DDE3",
"+X c #DBDCE3",
"@X c #D0DDEE",
"#X c #E5DEE3",
"$X c #CEE0EC",
"%X c #D4E1E5",
"&X c #DDE4E4",
"*X c #D4E3EA",
"=X c #DBE5EB",
"-X c #DBEAEC",
";X c #D3EBEF",
":X c #DCECF3",
">X c #DCEEFC",
",X c #D9E5F3",
"<X c #DCF3F5",
"1X c #DCF6FF",
"2X c #CDE6FA",
"3X c #E7E7E9",
"4X c #FDEFEB",
"5X c #F6E9E5",
"6X c #FAF3EA",
"7X c #FFF9ED",
"8X c #F0F3EC",
"9X c #E3ECF4",
"0X c #ECEDF6",
"qX c #E2EEFA",
"wX c #E4F2F4",
"eX c #EBF2F5",
"rX c #EBF8F6",
"tX c #EBF4FC",
"yX c #ECFCFD",
"uX c #E6F6FB",
"iX c #F5F6F3",
"pX c #FBF5F4",
"aX c #FEFDF3",
"sX c #F3F5FC",
"dX c #F4FDFF",
"fX c #FDFDFD",
"gX c #FBF9F6",
"hX c #F7ECF0",
/* pixels */
"aXfXfXfXfXdXfXfXfXfXsXtXtXtXwX<X<X<X<XyXrXiXfXfXdXfXfXfXfXfXfXaX",
"fXfXfXfXfXdXfXdX0XtX0X0X9X=X-X:X<X;X*X-XwXeXrXrXdXdXdXfXfXfXfXaX",
"fXfXfXfXdXfXdXyXsX0X9X@XXX^.F.A.A.A.F.%X&X9XwXuXtXyXdXfXfXfXaXaX",
"aXfXfXfXfXdXuX:X,XXXJ.V.V.V.B.B.A.A.p.w.w.p./.wXqXyXdXdXfXfXaXaX",
"aXfXfXfXdXrX-X%X(.^.T.E./.+X,X:X,X9X9X+XE.C.V.p.@X:XyXdXfXfXaXfX",
"fXfXfXfXyXwX%X^.D.~.+X+XW.G.Z.J.Z.W.Q.Q._._.R.D.F.(.:XyXfXfXfXaX",
"fXfXfXrXwX%X(.F.`.`.W.b.4.! D l l Q -.7.I.5X3X_.D.!.%XqXdXfXfXfX",
"fXfXdX8X-X(.~.K.'.n.-.j 8 3 ; , < e r y E c.[.].~.~.XX*XtXfXfXfX",
"fXfXtX0XwX%X~.P.y.k u ; % q t * = w 9 9 % g 3.N.).D.T.*X:XdXdXfX",
"sXfXtX,XoX~.).N.Q 3 % 9 z z m v x m c t i = g 6.U.L.^.*X:XuXdXdX",
"dXyXqX,X%X&X).e.u 4 0 M G G Y c c ` P B B t 4 C n.).%XoX$X>XyXdX",
"dXtX>X=X(.&XU.Q o u n S G G U v v X.I G I I 4 1 6.].=XoXoX:XyXdX",
"dXtXwXoXV.L.v.h 2 N ~ ~ ( _ k.G ( #.k.) #.| E 1 Q W.3X`.*X:XyXyX",
"dXuXwXOXJ.L.e.5 - 8 f f n S [ Z A F W A V C h 7 s J.+X^.%X-XuXyX",
"dXrX=X%X&X#Xq.O X   # # < < 8 3 3 3 1 4 . % . O 6 d.~.T.%X-XuXyX",
"dXrX&X`.`.'.6.: 7 e n b V V V C E D F g N y u 8 + a.R.S.%X-XrXyX",
"fXdX&X'.].|.4.$ b ) +.@.#.k.l.[  .z.&.o.$.Y O.W 1 8.&X%X&X-XrXfX",
"fXgX3X'.K.P.;.> Z { X.X.X.o.&.' ' &.o...X.Y +.^ $ 8.'.`.%X-XrXfX",
"fXfX8X=XS.P.4., Z ) +.@.o.$.k.I [ x.l.o.#.O.| ~ 2 r.'.'.3XiXfXfX",
"dXdXuX<X(.-XC.6 h T K ) ^ [ } A k } ] W ~ T N h o e.).`.&XiXfXfX",
"yXyXuX1X2X>XF.a + : - < : > 8 2 + 5 + 2 - : O O O B.^.@X:XdXdXdX",
"yXdXyX1X,X@XC.a O : , < < , e : 6 s 7 8 8 7 : O a Z.oX>XuXdXdXdX",
"fXfXdXdX0XQ.Z.N e T ( ) ) ) ) Z A #.I [ ) ) A e s Q.+X0XsXdXdXfX",
"aXaX6XfXfX}. X2.q ~ _ ( J ) ) z c X.P H ` Y K 0 V 5X5XfXfXfXfXfX",
"7X7XpX4XaX5X XM.% i L _ J L ( M m U Y H { G t 0 2. X{.hXpXfXpXfX",
"aXaXaXhXZ.m.{.m.W V q e p b N # q b p 0 i n V } c.n.v.5.Z.fXpXfX",
"fXyXdX0X:.9.v.u.a.n.t.3.-.Q Q C l Q -.=.r.y.s.N.i.q.q.:.#XfXfXfX",
"dXfXfXtX9.9.0.q.>.e.b.N.I.Y.Z.Q.E.E.J.D.D.i.0.*.<.<.<.V.fXfXaXiX",
"fXfXfX3Xd.q.1.>.,.,.;.] =.4.4.5.0.9.0.<.*.*.1.1.5.5.>.u.#X5XaXaX",
"gXaXpX#X#XQ.Z.I.n.y.s.r.7.t.t.v.i.i.f.n.s.s.N.N.U.Y.Q.U.}.pX6XaX",
"fXfXfXhXfXfXfXfXfX8XaXfXaXfXgXhXfXpX8X6XaXiXaXiXiXfXfXfXsXfXrXfX",
"fXfXfXfXfXfXfXfXfX8XfXfXiXfXfXfXaXaXaX7X7XaXaXfXfXfXsXfXfXyXdXdX"
};
