/* XPM */
static const char *Z3JvdW5k[] = {
/* columns rows colors chars-per-pixel */
"30 30 109 2 ",
"   c #3F5807",
".  c #3F5709",
"X  c #445D0C",
"o  c #465F11",
"O  c #446306",
"+  c #486B05",
"@  c #46620D",
"#  c #49650D",
"$  c #4C6B0E",
"%  c #4E710B",
"&  c #51740E",
"*  c #4A6413",
"=  c #4E6A13",
"-  c #4C6418",
";  c #516D14",
":  c #526C1A",
">  c #4F7110",
",  c #537413",
"<  c #567911",
"1  c #557812",
"2  c #567913",
"3  c #577A12",
"4  c #557810",
"5  c #557814",
"6  c #567915",
"7  c #577A14",
"8  c #577A16",
"9  c #587B13",
"0  c #587815",
"q  c #587B15",
"w  c #587817",
"e  c #587B17",
"r  c #5A7A17",
"t  c #597C14",
"y  c #5A7D15",
"u  c #597C16",
"i  c #5A7D17",
"p  c #5B7E16",
"a  c #5C7F17",
"s  c #527018",
"d  c #537119",
"f  c #547218",
"g  c #557319",
"h  c #55711A",
"j  c #54701B",
"k  c #54721A",
"l  c #567518",
"z  c #577618",
"x  c #577619",
"c  c #56741A",
"v  c #54701C",
"b  c #55711C",
"n  c #57701C",
"m  c #57701F",
"M  c #587519",
"N  c #587719",
"B  c #58771A",
"V  c #5A731F",
"C  c #58761C",
"Z  c #597918",
"A  c #587A19",
"S  c #5A7A19",
"D  c #59781A",
"F  c #5A791B",
"G  c #5B7B1A",
"H  c #597C18",
"J  c #5A7D19",
"K  c #5B7E18",
"L  c #5B7E1A",
"P  c #5C7F19",
"I  c #5C7F1B",
"U  c #5A791C",
"Y  c #5B7A1C",
"T  c #5A781E",
"R  c #5C7B1E",
"E  c #5F7F1C",
"W  c #5E7E1D",
"Q  c #5D7C1E",
"!  c #5D7C1F",
"~  c #5D7B21",
"^  c #5E7D20",
"/  c #5D8018",
"(  c #5E8119",
")  c #5D801A",
"_  c #5E811B",
"`  c #5F821A",
"'  c #5D801C",
"]  c #5E811D",
"[  c #5F821C",
"{  c #60831B",
"}  c #60831D",
"|  c #60801F",
" . c #60831F",
".. c #62821F",
"X. c #61841C",
"o. c #61841E",
"O. c #62851F",
"+. c #63861E",
"@. c #64871F",
"#. c #638620",
"$. c #638622",
"%. c #648421",
"&. c #648721",
"*. c #658820",
"=. c #658822",
"-. c #668923",
";. c #668925",
":. c #678A24",
">. c #678A26",
/* pixels */
"& 2 [ O.i % 4 } 1 2 i P q 4 2 _ 4 2 9 9 7 2 7 q K K q 4 , 4 ",
"& 1 7 q i P P P i 2 7 K P i q i 2 2 2 9 q i i i q K K 7 4 7 ",
"O.O.i 4 q [ 7 + _ 7 4 q _ _ i 2 _ i t t i i i q 7 K K 7 0 Z ",
"7 2 1 2 [ =.} 2 P 7 4 2 P _ i 1 @.X./ i i i 7 1 7 K 7 1 7 K ",
"2 1 i O.&.} _ [ i i q i K P i 7 O.O._ a i i 7 2 K K 7 7 K [ ",
"_ P } :.O.2 4 i 7 K P K K P _ P i a _ / K i i i [ W K K [ #.",
"& & 2 P } O.O.#.1 q i q i P _ K & 9 _ _ i q i P K [ [ K K W ",
"q q 1 & i =.#.q & 1 2 1 2 K K 2 & 9 _ _ i 2 2 i 7 [ } K 4 , ",
"&.7 & i _ K i _ 4 _ #._ 2 7 _ O.@.@._ 2 & 1 P } Z K K q q K ",
"P q i } _ 4 % & q i P K i 2 2 2 i @.{ % % _ [ & K K K Z q K ",
"K _ &.=._ & & 2 O.i 2 _ O.P 2 & & t 2 % 2 :.#.% 7 K K 7 7 K ",
"K _ O.[ q 2 K #.&.7 4 _ &._ 7 7 2 & % 2 } O._ i 7 K q 1 1 7 ",
"2 7 2 & & 2 _ &.O.2 & i P 2 1 i _ i 2 i [ _ K K K K q 0 4 7 ",
"& 2 2 & 4 i _ _ O.P i i 7 & 4 i 2 _ _ 2 2 #.=._ K P K 7 1 7 ",
"2 _ _ q 7 _ O.} _ [ [ K 7 2 7 i & i i & 1 } O.K K K Z 1 4 7 ",
"7 } O.7 1 _ :.:.7 K P q 7 7 q 7 O.q 4 2 2 4 % 4 Z Z 0 , > , ",
"q 1 & & , 0 Z Z W Z 0 0 z B B z 0 q W %.} w & $ 0 Z U B , $ ",
"1 1 , , $ $ $ & Z W W U k , k z , & , q Z 0 , ; 0 0 0 , = $ ",
"Z W } W 0 , ; , , U ^ U ; $ ; z 0 & $ , z B 0 0 z 0 , $ $ $ ",
"; z W Z , $ = , = , , , $ $ ; f Z , $ & , , , f R z ; $ $ $ ",
"$ , z z ; ; k U , $ O # = , , $ , ; ; , = $ $ , C , = # # # ",
"= ; d d k z U ~ C $ O O , B , $ $ $ , , = # $ ; = = $ # # # ",
"* @ @ # = = = $ ; $ # $ f B f = $ $ ; f ; = $ = # = = = * * ",
": * @ * : ; * X X O $ ; f f f , $ # $ = = # O O * ; k m : = ",
"X * - @ X X @ @ * # # $ = ; ; ; ; * O @ # @ * = # @ @ = : : ",
"@ * * * = : m : @ @ * = ; ; = * : ; ; k : = * * = = = = = * ",
"o X X @ : m : = X * : m V m : * : = : : : - @ @ = : : : - * ",
"* o X X * - *   @ * = : : : = * * @ @ X X X @ * * - : - * * ",
"- - * @ X @ X   @ X X X o * * * * * * X X X * - o * * o * - ",
"* - - * @ * * * - o X . X X * - - : : - @ X X X o * * X o * "
};
