/* XPM */
static char *ground1719343761[] = {
/* columns rows colors chars-per-pixel */
"32 32 23 1 ",
"  c #4F6117",
". c #526516",
"X c #556817",
"o c #54661B",
"O c #56691C",
"+ c #5A6C1E",
"@ c #5C711F",
"# c #566B21",
"$ c #5B6D22",
"% c #5E6F28",
"& c #5E7124",
"* c #5E7329",
"= c #617425",
"- c #647926",
"; c #63752A",
": c #667A2B",
"> c #6A7C2D",
", c #667730",
"< c #6B7D31",
"1 c #6D802F",
"2 c #6C8131",
"3 c #728434",
"4 c #778A3B",
/* pixels */
"&+X1X111-@@===%+===+.+++=++==+++",
"1@111X.11--->>=+======>+>++++++=",
"1@111X.111>>>>=++=>>>>>==+++++==",
"@111X1.1->>>>>=XX=>><>>%+XX+==>>",
"2-2*X@X@-->>>>=++=>>>>>>+++X+=><",
"2*@@X@.@=>>>>>>=+=>>>;><$=====>>",
"*@*#.O.@->>>>>>==%+%;>>>=;>;;;==",
"*#*#.#@2-->>>>-@=XXo=>,;=;>,>;>;",
"*###*-22*22233>-;+.+<<>;>>,;;=%$",
"####*****---==-@;=%,<<>,%=%%%===",
"###*--**--**&@**%=,><;;,$$+$$$%=",
"#**2--***@***::,.+%;%$$%++$$$%$$",
"*----*#####222,*+$%%%+$=++%%%%%$",
"#@*-*#@#@@#222*#%%&%%%$$o$=;>,;=",
"@@*@**--*##*#2##;$$%%=$+$$%=;%%%",
"--***@@#*@#*#*#*%$&=%%%%%%%$$$$+",
",%%==@+X+=;;%%%o%%%%=$$$,=%=$o$$",
"++$$==@++&==;%%$$&%=%%%%$$$$$oo$",
"$%=====@==@@;,;%o$%&%$%;$+$$$ooo",
"$%======>:==%,,%$&=%++%;%$$%$ooo",
" o%%%=->>>-=%=%%$%%%$+$;=%$$$#o$",
"$o$$==->:>>@$$%%$=%$$$;;;$$$$$$%",
"%%$o+=->>-==%%%$$$++++%;=$$$%$+$",
"%$ o+=-->>==;:%%$+o.o+$%,%=%=$$+",
"%o o%$+==@@+>>;;;;++$+$=;>>>><;$",
"$o o%%==X=>>=&%%=;$X$&$@:;;;::;;",
"%o  X++=+><>=o$%%;&X+===:==::===",
"%oo XXXX>>>=$$%%;=+X&=>3:==<>=+&",
"$$$+$%+X>=++$%%$:++&>::4>==<>&+=",
"%%%$=$+++@=@$$o+=&&><>=>=====&:>",
",,;==@=+@==%%$+++==:>>===&++X+=>",
",,===>1><:==%%%$+>=+=>:=++&XX+&&"
};
