/* XPM */
static char *kk1719343479[] = {
/* columns rows colors chars-per-pixel */
"32 32 243 2 ",
"   c #1D0C00",
".  c #191501",
"X  c #1A1817",
"o  c #2A0D05",
"O  c #331C0D",
"+  c #3C1B0C",
"@  c #341704",
"#  c #251C14",
"$  c #2C1A13",
"%  c #271A1C",
"&  c #321D1E",
"*  c #3B1B1B",
"=  c #361917",
"-  c #2F0F12",
";  c #1B2619",
":  c #1A2C0F",
">  c #392302",
",  c #2A281A",
"<  c #33211D",
"1  c #39221B",
"2  c #262C0B",
"3  c #1B1E23",
"4  c #151A2A",
"5  c #241B23",
"6  c #2C1B24",
"7  c #2C1C2B",
"8  c #331B22",
"9  c #351B26",
"0  c #2A1A37",
"q  c #301C33",
"w  c #270D32",
"e  c #1C2426",
"r  c #1F2936",
"t  c #1D3128",
"y  c #222523",
"u  c #2B2323",
"i  c #232B26",
"p  c #25252C",
"a  c #2B232B",
"s  c #242C2C",
"d  c #2C2B2D",
"f  c #3C2425",
"g  c #31242C",
"h  c #3A212A",
"j  c #322A2C",
"k  c #352323",
"l  c #30322F",
"z  c #232434",
"x  c #252C33",
"c  c #2B2B34",
"v  c #2C2D39",
"b  c #292738",
"n  c #342432",
"m  c #32223B",
"M  c #342938",
"N  c #2C3135",
"B  c #253136",
"V  c #2C3531",
"C  c #4A1C04",
"Z  c #561A05",
"A  c #421D1A",
"S  c #581E13",
"D  c #671E00",
"F  c #751F00",
"G  c #462405",
"H  c #592B0E",
"J  c #43221C",
"K  c #48281A",
"L  c #572615",
"P  c #5C321A",
"I  c #493115",
"U  c #6E2802",
"Y  c #7A2502",
"T  c #712900",
"R  c #792801",
"E  c #68360A",
"W  c #7C3404",
"Q  c #6A3717",
"!  c #783A17",
"~  c #452323",
"^  c #4C2923",
"/  c #472B26",
"(  c #542E29",
")  c #5E3A24",
"_  c #5A322B",
"`  c #593227",
"'  c #503530",
"]  c #673727",
"[  c #7B3B2B",
"{  c #793825",
"}  c #6A3E36",
"|  c #752F23",
" . c #7F420E",
".. c #6D4811",
"X. c #7B4619",
"o. c #6B4229",
"O. c #764627",
"+. c #7B5629",
"@. c #6B423A",
"#. c #7A4738",
"$. c #675027",
"%. c #291E45",
"&. c #3E1F41",
"*. c #292645",
"=. c #862C09",
"-. c #853400",
";. c #8B3906",
":. c #983B0C",
">. c #8C3716",
",. c #943D15",
"<. c #9A2D00",
"1. c #A83C00",
"2. c #883C25",
"3. c #933F27",
"4. c #8D4607",
"5. c #9A4A00",
"6. c #93420B",
"7. c #964904",
"8. c #9B5305",
"9. c #9A530A",
"0. c #935204",
"q. c #8A4613",
"w. c #884B19",
"e. c #964A1C",
"r. c #964317",
"t. c #8D581C",
"y. c #935314",
"u. c #9B551D",
"i. c #975516",
"p. c #A44A00",
"a. c #AA4607",
"s. c #B44A03",
"d. c #AD5D02",
"f. c #A55906",
"g. c #B55C00",
"h. c #BB5A06",
"j. c #A64B19",
"k. c #AB5A1A",
"l. c #A85618",
"z. c #B55816",
"x. c #9C6417",
"c. c #AC6406",
"v. c #BA6301",
"b. c #B76806",
"n. c #BF7608",
"m. c #A8671B",
"M. c #B36C1B",
"N. c #BA6A1B",
"B. c #A97817",
"V. c #BB7316",
"C. c #864828",
"Z. c #954727",
"A. c #8C522D",
"S. c #9B5527",
"D. c #844933",
"F. c #904D30",
"G. c #885338",
"H. c #9B5533",
"J. c #A45727",
"K. c #B55725",
"L. c #886928",
"P. c #987835",
"I. c #9B7028",
"U. c #B7622A",
"Y. c #AC7128",
"T. c #B46F2F",
"R. c #C75D01",
"E. c #C65A01",
"W. c #C45F11",
"Q. c #C46E02",
"!. c #CA6907",
"~. c #D56C09",
"^. c #CE7401",
"/. c #C97505",
"(. c #D27302",
"). c #DA7501",
"_. c #D17C00",
"`. c #D87B03",
"'. c #DD7D0A",
"]. c #D4760C",
"[. c #C66814",
"{. c #D76A14",
"}. c #CA7C13",
"|. c #C77717",
" X c #DC7918",
".X c #E07B13",
"XX c #C86623",
"oX c #D47127",
"OX c #C96F34",
"+X c #E87E26",
"@X c #B96952",
"#X c #B3831F",
"$X c #D58403",
"%X c #DB8401",
"&X c #DB840C",
"*X c #DA8809",
"=X c #D69603",
"-X c #CC841C",
";X c #DB851E",
":X c #D58619",
">X c #CF901F",
",X c #DA9814",
"<X c #C38204",
"1X c #E48401",
"2X c #E48B00",
"3X c #E4840C",
"4X c #E38C0C",
"5X c #EB8A05",
"6X c #EA920D",
"7X c #E79907",
"8X c #F2960E",
"9X c #F39805",
"0X c #E68A15",
"qX c #E6931A",
"wX c #EB9715",
"eX c #F59815",
"rX c #DCA312",
"tX c #EBA203",
"yX c #E4A606",
"uX c #FAA70B",
"iX c #E9B407",
"pX c #F6B604",
"aX c #EBA315",
"sX c #EBA71B",
"dX c #F8A916",
"fX c #FCB819",
"gX c #ECB212",
"hX c #CB8828",
"jX c #D7942C",
"kX c #C99234",
"lX c #F79529",
"zX c #D6A132",
"xX c #FDB828",
"cX c #F2B52C",
"vX c #FFCA19",
"bX c #F2C007",
"nX c #FFD22F",
"mX c #FFEA3B",
"MX c #BA9141",
"NX c #C98A47",
"BX c #C3A54B",
"VX c #F5B244",
"CX c #F6CD51",
/* pixels */
"g j c V s t B *.z m M ~ 8 A C C C Z C > > # 8 9 g d ; : V V q &.",
"j c a s x x B B v M 9 9 K ] o.O.w.! +.+.$.I 1 1 k j i t t B n m ",
"d d p s c v b a , < K ) #.A.G.C.q.u.I.I.I.L...G 1 & c *.r r n n ",
"d d c N v c a & / ) O.A.A.A.w.q.l.M.M.x.B.#X#Xx.E + 7 *.*.b d k ",
"i s c c b g ~ J o.O.t.y.i.l.J.K.[.N.XXhXhX#X<X>XY.E 9 q *.b , 2 ",
"t s s p 6 h ' ] ..w.y.l.k.m.K.z.p.a.h.|.;X2X%X`.;Xy.L 9 q 5 2 2 ",
"B s d u < ^ ] O.C.x.m.k.f.7.;.-.p.p.5.:.v.0XeX5X4XV. .G = , , , ",
"B x d f K ` Q >.e.u.9.4.-.-.5.c.g.v.[.[.!.].5X9X2XqXM.E G < , t ",
"z *., 1 ) E ! w.S.S.T W 0.0.d.V.c.n.}.;X!.!.8X5X2X6X-Xy.Q = 7 %.",
"b M = I Q E w.i.J.U W u.m.0.hX}.c.b.}.;X(.).'.5X1X8XqXc.w.A w %.",
"b n / ) E q.S.u.W U S.T.0.m.VXhX0.c.}.:X'.&X3XwX1X8XeX}.m.H 9 0 ",
"m 8 / o.Q q.l.6.Z S.H.S. .hXjXhX4.0./.}.&X&X&XsX4X8X8X&XM.X.* 7 ",
"n 8 ' o.! e.e.R W S.q.y.8.jXn.b.5.7.v.Q._.$X$XsX9XeXuX6X-Xy.G O ",
"g f _ { ! Z.>.U q.l.m.0.c.|./.p.b.b./.^.^.$X$XaX7XdXdXeX:Xm.G > ",
"& ' } ] 2.3.Y Y 6.9.T.f.b././.v.'.0X0X5X(./.7XyXaXuXuX6X>XT.H @ ",
"$ _ @.] 2.3.Y =.6.4.8.b.|./.h.0X*X8XeXeX(.Q.yXtXuXtX2X_.:XNXP o ",
"A _ ] 2.2.>.F ,.S.4.i.N.c.Q.%X%X=XnXlXp.).).uXtXtXvXxXqXc.Y.H O ",
"A _ ] { 2.>.=.,.J.e.k.Y.b.].6X2XsX,Xd.;X3XeX2XpXpXpXnX=XjXt.@ @ ",
"* _ } { 2.=.=.,.,.q.y.f.b.:XeX3X0X(.h.`.7XfXyXiXiXvXnXrXzXP.@ & ",
"* ( D.{ 2.>.>.,.j.r.7.8.d.}.qX0X~.1.(.4XgXyXyXbXpXmXmXcXkXL.$ X ",
"* ( #.2.Z.,.,.,.j.6.4.5.8.c.Q.Q.E.s.`.aXgXiXyXpXvXvXnXCXBX> # 4 ",
"9 A } D.Z.,.,.1.K.z.z.N.[.Q.Q.(.E.).wXyX=XgXfXvXiXyXcXCXP.. , p ",
"9 9 _ #.Z.Z.:.j.j.a.h.N.{.].).'.3X$X,XrXrXsXxXxXtXdXzXMX> # X X ",
"n 9 ^ #.D.H.,.z.a.z.E.h.!. X].'.^.aX=XrXcXCXCX).1X&XkX..o % % u ",
"n 5 f @.G.A.Z.j.a.a.z.E.E.R.~.).4X$XsXeXh.{.lX{.!.N.w.@ X 5 % # ",
"v a 6 J } D.H.J.z.z.W.W.{.{..X.X&XeXwX0X~.1.1.OXOXw.@ . % p 5 & ",
"v x a & J ` O.H.J.J.z.XXoXOXoXoX+X{.E.E.{.XXK.3.O.G . X e 3 5 h ",
"x z p j & + L O.F.Z.J.T.OXU.K.z.a.<.s.s.1.OX@XS = X ; t ; 3 a 6 ",
"c p e d j < = G L H Q { ! U D F =.=.=.,.J.H.] o % 4 4 3 X p c 5 ",
"s x s p p j k % J A L L L S S S S [ 2.| ! C o & r 4 4 z e y a p ",
"e d N x e z x g & & * 9 A ~ A ~ ~ 9 w - o O 2 . X r 0 q a 5 ; i ",
"l i e x v x z a 7 9 8 - 8 9 9 % X 5 q w % # : : 3 b %.w 7 a , t "
};
