/* XPM */
static const char *cGxheWVyMjIrJTI4MSUyOQ__[] = {
/* columns rows colors chars-per-pixel */
"30 30 186 2 ",
"   c #140B01",
".  c #110D0A",
"X  c #1C1001",
"o  c #18160F",
"O  c #1B1711",
"+  c #1B1C15",
"@  c #1E1E1A",
"#  c #321D06",
"$  c #221F1A",
"%  c #1E2312",
"&  c #1F201A",
"*  c #382006",
"=  c #3C2608",
"-  c #2F3D0F",
";  c #23231E",
":  c #2A261D",
">  c #25291C",
",  c #282F1B",
"<  c #2A3513",
"1  c #2C341B",
"2  c #2D3819",
"3  c #303E14",
"4  c #313A1E",
"5  c #262622",
"6  c #272821",
"7  c #2A2A24",
"8  c #2F2F2A",
"9  c #332F25",
"0  c #333127",
"q  c #3C3326",
"w  c #363D26",
"e  c #32332B",
"r  c #3C3728",
"t  c #3A3A2E",
"y  c #393B31",
"u  c #4B2E14",
"i  c #4E3B1C",
"p  c #573917",
"a  c #483C2C",
"s  c #413E34",
"d  c #36490F",
"f  c #344414",
"g  c #374913",
"h  c #3B4E14",
"j  c #35421C",
"k  c #3C451F",
"l  c #3D4B1A",
"z  c #3D5412",
"x  c #3F5810",
"c  c #3D432C",
"v  c #3E4134",
"b  c #425D0F",
"n  c #425712",
"m  c #435D11",
"M  c #41531A",
"N  c #495F19",
"B  c #73440F",
"V  c #7F560D",
"C  c #674711",
"Z  c #6A4610",
"A  c #755011",
"S  c #466112",
"D  c #4A6512",
"F  c #4D6A13",
"G  c #4B631A",
"H  c #4E6A18",
"J  c #516D14",
"K  c #526C1B",
"L  c #4F7113",
"P  c #547415",
"I  c #597716",
"U  c #567916",
"Y  c #5A7C16",
"T  c #55721A",
"R  c #5A771D",
"E  c #567918",
"W  c #5B7C19",
"Q  c #434B22",
"!  c #444E2E",
"~  c #59422B",
"^  c #435221",
"/  c #495A24",
"(  c #4D5927",
")  c #404337",
"_  c #494736",
"`  c #44453A",
"'  c #49473F",
"]  c #5F4833",
"[  c #544E3F",
"{  c #4D5638",
"}  c #4E5838",
"|  c #555B35",
" . c #52573C",
".. c #644D28",
"X. c #714F26",
"o. c #665232",
"O. c #506426",
"+. c #556D25",
"@. c #52642C",
"#. c #596C2E",
"$. c #5C7725",
"%. c #5B6C34",
"&. c #59643B",
"*. c #5D6F38",
"=. c #607D24",
"-. c #637835",
";. c #4D4D43",
":. c #514F45",
">. c #595446",
",. c #58574A",
"<. c #5D594C",
"1. c #675740",
"2. c #635C47",
"3. c #605C4A",
"4. c #615E52",
"5. c #5F624D",
"6. c #5F6154",
"7. c #6A6047",
"8. c #63664C",
"9. c #6D624F",
"0. c #646D4E",
"q. c #677547",
"w. c #6C7B45",
"e. c #6B774E",
"r. c #707F4A",
"t. c #636352",
"y. c #6A6251",
"u. c #676954",
"i. c #696D55",
"p. c #6D6B5B",
"a. c #726852",
"s. c #736F5B",
"d. c #74745C",
"f. c #79755D",
"g. c #78785D",
"h. c #6E6F61",
"j. c #706E67",
"k. c #747263",
"l. c #797563",
"z. c #777A61",
"x. c #7E7C65",
"c. c #7B7A6B",
"v. c #845A0E",
"b. c #8C5C10",
"n. c #90541B",
"m. c #8F600C",
"M. c #9A6A0E",
"N. c #B97C0E",
"B. c #AF681F",
"V. c #A3711A",
"C. c #895F29",
"Z. c #817658",
"A. c #847760",
"S. c #817F63",
"D. c #817D68",
"F. c #807F70",
"G. c #5E8118",
"H. c #5E8218",
"J. c #608317",
"K. c #608417",
"L. c #608518",
"P. c #628619",
"I. c #668B18",
"U. c #628023",
"Y. c #75874C",
"T. c #7F806B",
"R. c #E49B0E",
"E. c #FEAE0B",
"W. c #868667",
"Q. c #82846B",
"!. c #89866D",
"~. c #8E8C6D",
"^. c #87906D",
"/. c #898571",
"(. c #878974",
"). c #918D74",
"_. c #908B79",
"`. c #959273",
"'. c #8D8B81",
"]. c #9C9A83",
"[. c #999A88",
"{. c #A29E80",
"}. c #A09F8E",
"|. c #ABA68B",
" X c #A5A995",
".X c #B1B0A0",
/* pixels */
"P E W L.Y P P Y Y P H.H.E P Y Y Y P P Y Y Y E Y Y Y Y P P P ",
"P Y Y E E Y Y Y Y E Y Y Y H.Y P P E Y Y E Y H.E P Y Y I Y Y ",
"H.H.E P H.H.E E H.Y P Y E Y P E Y K.Y E Y Y E Y Y Y Y E P W ",
"Y P E Y K.L.Y E Y P E E E K ^ / Y K.H.E Y Y E Y Y Y P P Y Y ",
"E P Y H.L.P K H.H.Y H.K ! y e v W L.H.H.P E P E Y H.Y Y H.Y ",
"H.Y K.I.K.P 2 H Y Y K c 7 > 0 v K H.H.T l E Y Y Y H.E Y L.H.",
"P E Y Y J.J > G E P j $ + + 5 v S Y L.H 1 P Y H.H.Y E Y Y Y ",
"Y Y P P H.l > H P S v t.8.e @ y } +.Y J > z E Y Y H.L.H.P P ",
"K.Y P E P 4 t G P q.(.).~.g.0 e k.T.#.H > 3 Y Y Y E H.Y E E ",
"Y E Y K.Y w y y w t.~.{.).!.<.0 k._.k.w ; f H.O.+.U U Y Y H.",
"H.L.L.L.H.h > 5 ; 6 Q.|.].S.d.e k./.l.7 % P H.*.0.W Y E P E ",
"H.H.H.H.Y P n < & 0 ).|.|.`.W.` k./.l.c D L.H.r.(.K Y P P E ",
"P Y Y P P Y H.R i.d.!.y.a.Z.W.f.D.a.[ ( Y Y Y ^.[.O.E L P P ",
"P Y E P E Y Y $.x.S.3.= M.v.i A.9.A C ^ Y I.=. X[.+.H.E Y E ",
"E Y Y Y P Y H.U.z.g.2.V E.R.B ] ~ N.V.( E H.Y..XQ.K P P P P ",
"E J.H.E E J.I.U.d.p.s.i m.b.p p u Z ..%.E P ^.}.e.I Y P P P ",
"P W P F P P Y R i.3.f.g.7.9.a * # q s.w.Y $.Q.F.#.Y Y I F H ",
"P P P P P F F T 8.<.y.x.l.p.9 X X : h.r.-.(.c. .K P P P F F ",
"P Y W Y P F F P @.5.t.4.3.4.$     O 6.-.w.'.u.K Y Y P F F F ",
"P Y Y P J F F P P K &.>.,.;.o . O h @.J %.j.@.P P P P F D F ",
"F J P J P P I Y P F / t ' q i q ` T L m ! { G F P P F D F H ",
"F F P P P P P P P G t.,.p.o.B.C.<.| N l @ g P H F F D S D H ",
"D S S D H J J H D k _ <.c.1.n.X.>.q 6 6 j S D H F F F F H F ",
"F F D S F J D S z 7 7 ' t.;.0 9 ` k 6 @ h D S F F F P P P H ",
"D D F S S S S S 3 5 8 :.;.) 0 0 :.&.2 3 D S S F D D D H J D ",
"m S D D J J J J m < 2 ;.s Q , ; r | M H J F F J F D D F H D ",
"S m m S D J F D S S f + ; l < + ; M J J F D S D D J J F D D ",
"m m m S D H S m m D d % ; f - + > f D S m S D S D H F F D D ",
"D F D S m S m m m m b x h n D m m D D S m m D D D D S m S D ",
"F F D S S S S D D D m m m D D D F J J D D m x m b D F m m m "
};
