/* XPM */
static char *player1719343237[] = {
/* columns rows colors chars-per-pixel */
"32 32 185 2 ",
"   c #150000",
".  c #1C0000",
"X  c #230300",
"o  c #290500",
"O  c #2D0B01",
"+  c #22060B",
"@  c #2C1100",
"#  c #391A00",
"$  c #351808",
"%  c #3F1F08",
"&  c #260B14",
"*  c #3E2813",
"=  c #3C2215",
"-  c #4B2000",
";  c #40210D",
":  c #47290D",
">  c #5C2F08",
",  c #5B3200",
"<  c #5F3D0F",
"1  c #48281D",
"2  c #563814",
"3  c #653B0B",
"4  c #683B14",
"5  c #532F21",
"6  c #54332E",
"7  c #51373A",
"8  c #6D3220",
"9  c #6C3F20",
"0  c #623E24",
"q  c #743B27",
"w  c #6D420D",
"e  c #70420E",
"r  c #6A461C",
"t  c #6B4517",
"y  c #7D4C1B",
"u  c #744E1F",
"i  c #73501A",
"p  c #7E5C1F",
"a  c #664724",
"s  c #68442A",
"d  c #6E4722",
"f  c #734A26",
"g  c #744C29",
"h  c #79432B",
"j  c #745224",
"k  c #7D5927",
"l  c #7B562C",
"z  c #76522E",
"x  c #7D5A39",
"c  c #7E5333",
"v  c #5C3E4A",
"b  c #6A4741",
"n  c #7B5C43",
"m  c #7E5444",
"M  c #7C5F59",
"N  c #7E5E63",
"B  c #834A2C",
"V  c #855421",
"C  c #835C25",
"Z  c #8A5B2F",
"A  c #805336",
"S  c #8C5D37",
"D  c #8D563D",
"F  c #8D5C3B",
"G  c #895438",
"H  c #945A34",
"J  c #93553A",
"K  c #955F39",
"L  c #874A35",
"P  c #87632F",
"I  c #93642E",
"U  c #8D633D",
"Y  c #936738",
"T  c #99643C",
"R  c #956939",
"E  c #90723C",
"W  c #A5743C",
"Q  c #845744",
"!  c #975B43",
"~  c #9A5E43",
"^  c #A15F49",
"/  c #876349",
"(  c #8D6C4B",
")  c #8D6A44",
"_  c #966445",
"`  c #9E6D46",
"'  c #9D644A",
"]  c #986A4A",
"[  c #9C6547",
"{  c #9C7848",
"}  c #9F7D57",
"|  c #A36D4A",
" . c #AF7D48",
".. c #A27244",
"X. c #A36B53",
"o. c #AA6852",
"O. c #A96653",
"+. c #A07F52",
"@. c #A57358",
"#. c #AA7758",
"$. c #977A72",
"%. c #9F815D",
"&. c #A58248",
"*. c #AB8448",
"=. c #AC8856",
"-. c #B18C57",
";. c #B1875D",
":. c #B28A59",
">. c #BE9156",
",. c #BD9759",
"<. c #B3925F",
"1. c #B49267",
"2. c #C39258",
"3. c #C49E60",
"4. c #CAA767",
"5. c #C7A46B",
"6. c #D4AB6D",
"7. c #C7A776",
"8. c #CEAB71",
"9. c #D0AD73",
"0. c #D7B77E",
"q. c #DEB97D",
"w. c #D8B37C",
"e. c #E2BC7C",
"r. c #E6C576",
"t. c #EBC477",
"y. c #EECA77",
"u. c #E5C37A",
"i. c #EBC57D",
"p. c #EECA7B",
"a. c #F0C577",
"s. c #F1CB77",
"d. c #F2C77D",
"f. c #F3CD7D",
"g. c #F9CD7F",
"h. c #EED37C",
"j. c #F3D07D",
"k. c #F8D37F",
"l. c #CAA882",
"z. c #D7AF8C",
"x. c #DFBA83",
"c. c #E5BF80",
"v. c #E2BA89",
"b. c #E4BB96",
"n. c #E6BE9A",
"m. c #CBAEB3",
"M. c #E5C182",
"N. c #EBC582",
"B. c #EEC986",
"V. c #E3C08A",
"C. c #EDC68C",
"Z. c #EDCA8C",
"A. c #F4CE84",
"S. c #F9CC84",
"D. c #F1C588",
"F. c #F4CD8B",
"G. c #F8CD88",
"H. c #EED185",
"J. c #F3D183",
"K. c #FBD384",
"L. c #F4D18C",
"P. c #FAD38C",
"I. c #FDD98C",
"U. c #E7C690",
"Y. c #E8C293",
"T. c #EFCD92",
"R. c #E9C99A",
"E. c #F1CC94",
"W. c #FACE91",
"Q. c #F5D293",
"!. c #FBD593",
"~. c #FDDA94",
"^. c #F7D399",
"/. c #FAD59B",
"(. c #FEDB9B",
"). c #F4CEA1",
"_. c #FBD9A1",
"`. c #F9D4AB",
"'. c #FFDBAE",
"]. c #F5D3A3",
"[. c #FFDDB0",
"{. c #FFE2A2",
"}. c #FFE2AF",
"|. c #FFE6B4",
" X c #F1D2D8",
/* pixels */
"h.h.H.H.H.H.H.H.P.J.H.H.J.J.W.Q.!.D.B.G.P.j.f.K.A.J.A.A.J.j.f.j.",
"h.j.J.J.H.H.H.J.r.j.K.J.L.P.F.B.D.!.P.B.y.K.K.A.H.A.F.H.A.J.j.j.",
"j.j.A.A.A.A.A.A.K.K.s.y.y.A.A.D.B.N.A.A.j.j.f.j.A.A.A.A.A.J.j.j.",
"A.f.A.A.F.A.A.A.j.s.j.K.J.y.A.G.P.A.a.k.K.s.s.j.A.J.J.F.J.A.A.j.",
"S.S.S.G.S.S.S.A.s.g.f.k.f.A.P.~.G.!.I.h.y.j.k.j.A.A.A.A.F.A.A.J.",
"S.S.S.G.G.S.S.g.K.k.s.s.L.!.u.4.,.4.u.P.I.h.s.j.J.J.A.F.A.H.J.A.",
"g.S.G.G.S.G.S.S.A.f.J.I.F.8.{ j R P &.c.~.J.r.L.A.A.F.A.A.A.A.A.",
"g.g.S.S.S.G.S.S.P.A.Q.T.<.d a ( ( z l =.M.!.P.A.A.A.A.A.A.A.A.h.",
"d.g.g.A.A.F.A.A.F.Q._.7.2 :   $ O o 0 f 1./.C.!.F.A.A.A.L.J.f.j.",
"g.f.f.f.J.A.F.F.Q.8.|.1.# . X . X X X s ) Y./.c.F.A.D.A.f.f.f.k.",
"h.j.j.J.J.A.A.F.Q._.].}   $.v .   / b O A Y.E.W.G.G.S.A.g.f.j.f.",
"h.h.h.B.H.J.F.F.M.R.R.( % M m.& v  X6 X ( |.T.!.G.G.S.S.f.f.k.j.",
"j.h.J.H.A.A.A.A.P.(.].@.; X . + &   . + l.|.0.F.S.A.S.S.A.f.j.k.",
"h.J.J.J.A.A.g.S.A.e./.{ 2 X O X .   @ s =.E.D.!.S.g.A.A.S.J.A.A.",
"J.B.J.A.f.g.g.g.P.S.{.t f / 5 1 = * n 2 E {.P.t.f.g.S.S.S.A.A.A.",
"F.A.L.A.S.A.g.g.S.S.e.C 4 A Q m n n x j i M.A.K.k.g.A.S.A.A.F.A.",
"A.J.A.A.A.j.A.A.B.(.2.y | ~ L 4 q h X.` y >.!.i.S.A.J.S.A.A.F.S.",
"A.A.A.A.j.j.A.A.t./. .V J J O.O.' ~ J H V W (.G.A.j.g.J.A.A.A.F.",
"A.A.A.f.A.A.A.A.!.G.V I K J ! ! ~ | B Y R I !.i.A.A.J.f.A.S.F.S.",
"A.F.A.A.A.j.J.A.!.6.e ..[ [ ! X.! [ D T T y e.!.A.A.A.A.F.A.A.F.",
"A.A.A.A.f.J.A.A.G.,.w S S #.D D ' ! _ ` Y , *.~.A.A.A.A.A.S.G.G.",
"A.A.A.A.A.J.J.A.(.e.I 3 > ] [ @.G ] F - 3  .M.B.A.J.A.A.S.A.S.G.",
"A.A.j.j.J.f.B.L.e.(.C.:.D f 9 d x g / ;.x.E.Z.P.A.J.A.A.A.A.D.A.",
"f.A.A.A.J.J.J.A.L.Q.x.x.[.b.b.z.n.`.`.^.R././.B.A.F.A.A.A.A.A.A.",
"J.J.A.A.J.A.A.A.F.F.Q.-.f k l r r r < k 5.T.H.P.F.J.A.A.A.A.A.A.",
"J.A.f.A.A.J.A.J.P.F.c.C X . o O . # O o p u.Q.i.F.A.A.A.S.A.A.S.",
"A.A.J.J.A.A.A.A.i.L.{.Z.8.0.v.V.U.0.4.0././.D.P.A.A.A.A.A.A.F.A.",
"A.J.A.A.A.A.A.A.K.D.F.F.F././.Z.T.Q.T.Q.I.B.i.A.A.A.A.A.A.A.A.F.",
"H.A.A.J.A.J.A.A.S.A.S.F.N.B.Q.L.N.~.~.N.t.D.L.S.S.S.S.A.F.A.F.L.",
"A.J.A.A.A.f.S.f.t.S.S.I.P.A.L.J.H.r.r.~.~.g.f.K.A.f.S.A.A.A.A.A.",
"H.B.A.J.g.A.g.g.I.I.d.d.S.A.J.B.I.K.H.p.f.k.S.g.g.S.A.A.A.A.A.F.",
"H.J.A.J.j.A.g.f.a.K.d.A.K.f.K.B.p.s.J.K.f.S.K.g.f.g.S.A.A.J.F.H."
};
