/* XPM */
static const char *c3RvbmUrJTI4MiUyOQ__[] = {
/* columns rows colors chars-per-pixel */
"30 30 256 2 ",
"   c black",
".  c #010101",
"X  c #020202",
"o  c gray1",
"O  c #040404",
"+  c gray2",
"@  c #060606",
"#  c #070707",
"$  c gray3",
"%  c #090909",
"&  c gray4",
"*  c #0B0B0B",
"=  c #0C0C0C",
"-  c gray5",
";  c #0E0E0E",
":  c gray6",
">  c #101010",
",  c #111111",
"<  c gray7",
"1  c #131313",
"2  c gray8",
"3  c #151515",
"4  c #161616",
"5  c gray9",
"6  c #181818",
"7  c #191919",
"8  c gray10",
"9  c #1B1B1B",
"0  c gray11",
"q  c #1D1D1D",
"w  c #1E1E1E",
"e  c gray12",
"r  c #202020",
"t  c gray13",
"y  c #222222",
"u  c #232323",
"i  c gray14",
"p  c #252525",
"a  c gray15",
"s  c #272727",
"d  c #282828",
"f  c gray16",
"g  c #2A2A2A",
"h  c gray17",
"j  c #2C2C2C",
"k  c #2D2D2D",
"l  c gray18",
"z  c #2F2F2F",
"x  c gray19",
"c  c #313131",
"v  c #323232",
"b  c gray20",
"n  c #343434",
"m  c #353535",
"M  c gray21",
"N  c #373737",
"B  c gray22",
"V  c #393939",
"C  c #3A3A3A",
"Z  c gray23",
"A  c #3C3C3C",
"S  c gray24",
"D  c #3E3E3E",
"F  c #3F3F3F",
"G  c gray25",
"H  c #414141",
"J  c gray26",
"K  c #434343",
"L  c #444444",
"P  c gray27",
"I  c #464646",
"U  c gray28",
"Y  c #484848",
"T  c #494949",
"R  c gray29",
"E  c #4B4B4B",
"W  c #4C4C4C",
"Q  c gray30",
"!  c #4E4E4E",
"~  c gray31",
"^  c #505050",
"/  c #515151",
"(  c gray32",
")  c #535353",
"_  c gray33",
"`  c #555555",
"'  c #565656",
"]  c gray34",
"[  c #585858",
"{  c gray35",
"}  c #5A5A5A",
"|  c #5B5B5B",
" . c gray36",
".. c #5D5D5D",
"X. c gray37",
"o. c #5F5F5F",
"O. c #606060",
"+. c gray38",
"@. c #626262",
"#. c gray39",
"$. c #646464",
"%. c #656565",
"&. c gray40",
"*. c #676767",
"=. c #686868",
"-. c DimGray",
";. c #6A6A6A",
":. c gray42",
">. c #6C6C6C",
",. c #6D6D6D",
"<. c gray43",
"1. c #6F6F6F",
"2. c gray44",
"3. c #717171",
"4. c #727272",
"5. c gray45",
"6. c #747474",
"7. c gray46",
"8. c #767676",
"9. c #777777",
"0. c gray47",
"q. c #797979",
"w. c gray48",
"e. c #7B7B7B",
"r. c #7C7C7C",
"t. c gray49",
"y. c #7E7E7E",
"u. c gray50",
"i. c #808080",
"p. c #818181",
"a. c gray51",
"s. c #838383",
"d. c #848484",
"f. c gray52",
"g. c #868686",
"h. c gray53",
"j. c #888888",
"k. c #898989",
"l. c gray54",
"z. c #8B8B8B",
"x. c gray55",
"c. c #8D8D8D",
"v. c #8E8E8E",
"b. c gray56",
"n. c #909090",
"m. c gray57",
"M. c #929292",
"N. c #939393",
"B. c gray58",
"V. c #959595",
"C. c gray59",
"Z. c #979797",
"A. c #989898",
"S. c gray60",
"D. c #9A9A9A",
"F. c #9B9B9B",
"G. c gray61",
"H. c #9D9D9D",
"J. c gray62",
"K. c #9F9F9F",
"L. c #A0A0A0",
"P. c gray63",
"I. c #A2A2A2",
"U. c gray64",
"Y. c #A4A4A4",
"T. c #A5A5A5",
"R. c gray65",
"E. c #A7A7A7",
"W. c gray66",
"Q. c #A9A9A9",
"!. c #AAAAAA",
"~. c gray67",
"^. c #ACACAC",
"/. c gray68",
"(. c #AEAEAE",
"). c #AFAFAF",
"_. c gray69",
"`. c #B1B1B1",
"'. c #B2B2B2",
"]. c gray70",
"[. c #B4B4B4",
"{. c gray71",
"}. c #B6B6B6",
"|. c #B7B7B7",
" X c gray72",
".X c #B9B9B9",
"XX c gray73",
"oX c #BBBBBB",
"OX c #BCBCBC",
"+X c gray74",
"@X c gray",
"#X c gray75",
"$X c #C0C0C0",
"%X c #C1C1C1",
"&X c gray76",
"*X c #C3C3C3",
"=X c gray77",
"-X c #C5C5C5",
";X c #C6C6C6",
":X c gray78",
">X c #C8C8C8",
",X c gray79",
"<X c #CACACA",
"1X c #CBCBCB",
"2X c gray80",
"3X c #CDCDCD",
"4X c #CECECE",
"5X c gray81",
"6X c #D0D0D0",
"7X c gray82",
"8X c #D2D2D2",
"9X c LightGray",
"0X c gray83",
"qX c #D5D5D5",
"wX c gray84",
"eX c #D7D7D7",
"rX c #D8D8D8",
"tX c gray85",
"yX c #DADADA",
"uX c gray86",
"iX c gainsboro",
"pX c #DDDDDD",
"aX c gray87",
"sX c #DFDFDF",
"dX c gray88",
"fX c #E1E1E1",
"gX c #E2E2E2",
"hX c gray89",
"jX c #E4E4E4",
"kX c gray90",
"lX c #E6E6E6",
"zX c #E7E7E7",
"xX c gray91",
"cX c #E9E9E9",
"vX c #EAEAEA",
"bX c gray92",
"nX c #ECECEC",
"mX c gray93",
"MX c #EEEEEE",
"NX c #EFEFEF",
"BX c gray94",
"VX c #F1F1F1",
"CX c gray95",
"ZX c #F3F3F3",
"AX c #F4F4F4",
"SX c gray96",
"DX c #F6F6F6",
"FX c gray97",
"GX c #F8F8F8",
"HX c #F9F9F9",
"JX c gray98",
"KX c #FBFBFB",
"LX c gray99",
"PX c #FDFDFD",
"IX c #FEFEFE",
"UX c white",
/* pixels */
"6.i.&.l.n.h.x.V.f.o.=.O.t.m.n.g.:.N.d.k.g.;.e.h.h.' u.3.3.=.",
"q.2.$.p.y.j.x.p.B.( ..o.-.e.b.B.u.a.y.y.=.;.j.0.f.} 4.2.8.3.",
"d.#.4.b.f.N.V.c.S.3.Z.S.a.d.b.z.,.*.5.q.:.4.f.i.<.| $.2.6.,.",
"p.| t.C.v.z.r.c.J.3.z.H.k.,.#.w...>.u.z.V.i.>.g.h.4...;.3.:.",
"X.! 5.s.A.S.r.m.1.r.n.N.I.S.O.' e.c.D.J.R.m.,.3.s.O.F / -.3.",
") / :.=.n.K.p.a.+.a.e.X.,.u.| 1.B.m.V.B.b.H.C.:.4.} ..$.&.} ",
"1.| ;.+.4.7.1.1.s.<.<.z.g.X.H m.v.j.r.s.s.M.E.j.~ S 1.0.w.2.",
"8.E %.6.2.*.z.Y.E.s.9.k.j.a.$.z.k.N.6.d.m.q.b.Y.d.R ,.@.>.;.",
"$.! } =.2.,.A.G.A.>.d.x.g.r.*.b.v.p.y.h.j.d.z.D.F.]  .2.5.*.",
"] U / | X...l.m.8.} { +.8.1.o.v.b.d.p.k.l.d.h.m.b.Y ] ' _ ( ",
"J t.G.S.Z.e.8.5.&.V.G.l.i.+.{ g.k.u.r.a.h.g.k.n.q.P ,.*.>.r.",
"2.C.J.V.P.~.n.! <.E.U.A.P.N.i.<.m.k.s.d.j.x.n.B.6.$.N.m.M.A.",
">.p.S.V.0.B.Y.=.n.Z.y.j.L.E.I.0.v.c.j.d.d.f.s.y...<.v.M.x.y.",
"o.x.c.G.!.P.r.*.(.H.z.F.B.d.C.A.P ~ ` ( ^ ^ Y S _ 2.p.g.a.1.",
"Q Y.D.c.m.e.X.t.T.B.d.C.L.l.h.D.1.i.x.k.j.x.j.t.2.u.z.f.f.0.",
" .d.z.w.^ 4.z.6.B.J.v.c.Y.V.p.S.3.s.z.s.i.j.l.a.>.,.d.e.h.h.",
"^ E ;.r.j.z.G.m.*.n.F.M.N.S.N.V.<.r.w.p.s.0.q.0.c.( >.p.n.s.",
"_ q.C.v.M.s.f.l.6.&.t.A.n.b.N.f.;.5.3.q.r.8.9.>.w.w.E #.0.w.",
"/ d.m.e.V.c.k.A.j.:.{ 7.Y.J.q.@.u.a.r.r.7.6.t.3.y.a.Q [ &.,.",
"..s.k.7.c.k.l.C.d.c.2._ 6.1.{ ' 7.e.e.t.6.5.y.3.8.) 4.5.y.g.",
"&.e.A.b.z.p.c.b.V.v.e.E _ q.E.R.{ >.0.p.q.2.8.2.L C 1.4.6.8.",
"( E %.$.[ ` %./ ~ ..&.o.V.P.U.C.G.3.S ^ a.f.+.B A 0.3.w.6.5.",
"<.+.>.+...O.%.J 5.m.a...Z.x.l.I.F.l.] ! ..R K ( F 5.&.2.1.5.",
"] ,.k.t.y.s.g.-.C.B.z.-.V.D.F.s.F.B.*.%.e.@.{ 0.>.` e.7.5.4.",
"| a.q.7.4.8.h.=.9.M.>.>.H.L.A.K.N.B.a.@.N.9.&.>.3.' ) r.:.Y ",
"X.q.9.t.6.3.k.q.X.%.W ;.U.P.B.A.P.p. .^ 2.' -.@.:.=.^ ) ( K ",
";.<.2.s.w.3.s.6.1.i.-.+.u.C.H.C.A.4.o.5.w.' e.*.1.w.%.@.i.d.",
"9.;.*.t.y.q.w.X.] w.6.Q Y 3.Z.H.5.#.6.c.g...,.+.+. .| *.s.9.",
"0.>.$.<.8.t.e.O...2.8. .R ` $.;.1.>.d.u.p.;.` O.;.` ,.w.t.&.",
"2.3.*.o.;.r.s.u.) +.>.#.8.V.d.*.r.w.j.9.l.j.} ;.| ~ 0.5.1.*."
};
