/* XPM */
static char *wall1719343762[] = {
/* columns rows colors chars-per-pixel */
"32 32 32 1 ",
"  c #7F7F7E",
". c #817F7E",
"X c #807F7F",
"o c #807F7E",
"O c #7F7D7C",
"+ c #7E7D7D",
"@ c #807E7E",
"# c #7E7C7C",
"$ c #7F7E7E",
"% c #817F7F",
"& c #807E7D",
"* c #7E7D7C",
"= c #7F7E7D",
"- c #807D7C",
"; c #7F7B7A",
": c #807E7C",
"> c #7F7C7B",
", c #7E7C7B",
"< c #7F7C7C",
"1 c #7E7B7A",
"2 c #7F7C7A",
"3 c #807D7B",
"4 c gray50",
"5 c #807D7D",
"6 c #7F7D7D",
"7 c #7F7D7B",
"8 c #807F7D",
"9 c #807C7B",
"0 c #817E7D",
"q c #817F7D",
"w c #7E7E7D",
"e c white",
/* pixels */
" .XoO+ooX@#$%XXO+XXX@#$.XX&*ooXo",
"&=$oO&=@@&O&=$oO&&@@@O&=$o--&@@o",
"-;O-::>,O::-;<-::>1O::-2<O::31O-",
"oO=XX4&* %XoO+XX4&*$%XoO+XX4@O$%",
"&O&O=@--56&@7&O=&&-&6=@O&O=&&-&O",
"8&9,O0&->*&q&3,O0&->*&q&3,O0&->#",
"4X66oX4oO$XXX&6oX4oO$XX4&OoX4oO+",
"O:7--O--7:OO-O--O-->&OO-O--O-->:",
"&>+&.@-,=.o&>+&.@-,=oo&>*&.@&>6&",
"oO=oo &O$o oO=oo &O$o oO=oo @O$o",
"--:>>---->O-3:>>O--->>-3:>>O--->",
"@%o&,=.Xo-*@.o&<=oXo-*$.X@>6o%o-",
"@@$@O@@$oO=@@$@O=@$o56@@$oO=@$o6",
",<::3>,O0-3><:&3>,O0-3><-&3>,O0-",
"+$%XoO+oXX&*$%XoO+o%X&*$.XoO+o%X",
"&&==@O&==@&-&==@O&==&&-&==@O&==&",
"O0&->O:&->,O0&->O:0-3,O0&-><-0->",
"XX4@*$%Xo6+oX4oO$XXX&+o%4oO$XXX6",
"OO&&-&OO&-:OO&&-&OO&--OO&&3&OO&O",
"5>O&.&-,6&o&>*&.&-,6&o&>*=.@-,6&",
"oO$XX4&OoX oO=oX @O$X4oO=oX @O$X",
"&9->O&-3><-&3->O&-37<O03->O&:33>",
"o@-*@.o&>6o.@-#$.o&>+o.o-#=.o&>+",
"$oO=@o oO$o o&6@o$oO$o o&O@o$oO=",
"O9>--O3>>:O-9>--O3>>:--9>--O3>>-",
"@Owo%o&#$.XoO+o%o&#$.XoO+o%X&#$o",
"oO&=$o&-&=$oO&=$@&O&=$oO&=$@&O&=",
"O-0->OO0:>>O-0-><O0&>>O-0->>O:&O",
" %XoO+XX4@O$%XX6+o%4@O$%XX&+o%4o",
"&6=@O-O=&&3&6=@O-O6&&7&6=@--66&@",
"#O&&->*Oq&->O&q:>#Oq&->O&q&>#60&",
"+$%4oO+XX4&*$%4oO+oX4@#$%4oO+oX4"
};
